<svg width="14" height="12" viewBox="0 0 14 12" fill="none" xmlns="http://www.w3.org/2000/svg">
<path d="M7.00001 12C6.79929 11.9997 6.60329 11.9391 6.43751 11.8259C3.98157 10.1587 2.91814 9.01562 2.33157 8.30094C1.08157 6.7775 0.483136 5.21344 0.500011 3.51969C0.519699 1.57875 2.07689 0 3.97126 0C5.34876 0 6.30282 0.775938 6.85845 1.42219C6.87605 1.44245 6.8978 1.4587 6.92222 1.46984C6.94664 1.48098 6.97317 1.48674 7.00001 1.48674C7.02685 1.48674 7.05338 1.48098 7.07781 1.46984C7.10223 1.4587 7.12397 1.44245 7.14157 1.42219C7.6972 0.775313 8.65126 0 10.0288 0C11.9231 0 13.4803 1.57875 13.5 3.52C13.5169 5.21406 12.9178 6.77813 11.6685 8.30125C11.0819 9.01594 10.0184 10.1591 7.56251 11.8263C7.39669 11.9393 7.2007 11.9998 7.00001 12Z" fill="#FEFEFE"/>
</svg>
