<svg width="71" height="16" viewBox="0 0 71 16" fill="none" xmlns="http://www.w3.org/2000/svg">
<path d="M21.86 12C21.716 12 21.604 11.964 21.524 11.892C21.444 11.812 21.404 11.704 21.404 11.568C21.404 11.432 21.444 11.332 21.524 11.268C21.604 11.196 21.716 11.16 21.86 11.16H23.42V4.356H23.936L22.196 5.508C22.092 5.564 21.992 5.588 21.896 5.58C21.808 5.572 21.732 5.54 21.668 5.484C21.612 5.42 21.572 5.348 21.548 5.268C21.524 5.18 21.528 5.092 21.56 5.004C21.592 4.908 21.66 4.828 21.764 4.764L23.42 3.672C23.524 3.608 23.624 3.556 23.72 3.516C23.816 3.476 23.912 3.456 24.008 3.456C24.12 3.456 24.212 3.492 24.284 3.564C24.364 3.628 24.404 3.732 24.404 3.876V11.16H25.844C25.988 11.16 26.1 11.196 26.18 11.268C26.26 11.332 26.3 11.432 26.3 11.568C26.3 11.712 26.26 11.82 26.18 11.892C26.1 11.964 25.988 12 25.844 12H21.86ZM30.2073 12.108C29.8473 12.108 29.4713 12.036 29.0793 11.892C28.6873 11.748 28.3433 11.54 28.0473 11.268C27.9593 11.204 27.9033 11.128 27.8793 11.04C27.8633 10.952 27.8673 10.868 27.8913 10.788C27.9153 10.7 27.9553 10.628 28.0113 10.572C28.0753 10.508 28.1513 10.476 28.2393 10.476C28.3273 10.468 28.4193 10.5 28.5153 10.572C28.7873 10.804 29.0673 10.972 29.3553 11.076C29.6433 11.18 29.9353 11.232 30.2313 11.232C30.7513 11.232 31.1913 11.104 31.5513 10.848C31.9193 10.592 32.1953 10.204 32.3793 9.684C32.5713 9.164 32.6673 8.52 32.6673 7.752V6.636H32.7753C32.7273 7.084 32.5913 7.476 32.3673 7.812C32.1513 8.148 31.8713 8.404 31.5273 8.58C31.1833 8.756 30.7953 8.844 30.3633 8.844C29.8673 8.844 29.4273 8.732 29.0433 8.508C28.6593 8.284 28.3593 7.968 28.1433 7.56C27.9273 7.152 27.8193 6.692 27.8193 6.18C27.8193 5.644 27.9313 5.172 28.1553 4.764C28.3873 4.348 28.7033 4.024 29.1033 3.792C29.5113 3.552 29.9793 3.432 30.5073 3.432C31.1713 3.432 31.7353 3.596 32.1993 3.924C32.6713 4.244 33.0273 4.712 33.2673 5.328C33.5073 5.944 33.6273 6.688 33.6273 7.56C33.6273 8.296 33.5513 8.944 33.3993 9.504C33.2473 10.064 33.0233 10.54 32.7273 10.932C32.4313 11.316 32.0713 11.608 31.6473 11.808C31.2233 12.008 30.7433 12.108 30.2073 12.108ZM30.5673 8.016C30.9273 8.016 31.2433 7.936 31.5153 7.776C31.7873 7.616 31.9993 7.396 32.1513 7.116C32.3033 6.828 32.3793 6.5 32.3793 6.132C32.3793 5.764 32.3033 5.44 32.1513 5.16C31.9993 4.88 31.7873 4.66 31.5153 4.5C31.2433 4.34 30.9273 4.26 30.5673 4.26C30.2153 4.26 29.9033 4.34 29.6313 4.5C29.3673 4.66 29.1553 4.88 28.9953 5.16C28.8433 5.44 28.7673 5.764 28.7673 6.132C28.7673 6.5 28.8433 6.828 28.9953 7.116C29.1553 7.396 29.3673 7.616 29.6313 7.776C29.9033 7.936 30.2153 8.016 30.5673 8.016Z" fill="white"/>
<path d="M66.78 12.108C66.324 12.108 65.868 12.04 65.412 11.904C64.964 11.768 64.556 11.556 64.188 11.268C64.092 11.204 64.028 11.128 63.996 11.04C63.964 10.952 63.96 10.864 63.984 10.776C64.008 10.688 64.052 10.616 64.116 10.56C64.18 10.496 64.256 10.46 64.344 10.452C64.44 10.444 64.54 10.476 64.644 10.548C64.972 10.78 65.312 10.952 65.664 11.064C66.016 11.176 66.384 11.232 66.768 11.232C67.16 11.232 67.496 11.16 67.776 11.016C68.064 10.864 68.28 10.656 68.424 10.392C68.576 10.12 68.652 9.804 68.652 9.444C68.652 8.892 68.492 8.44 68.172 8.088C67.852 7.736 67.412 7.56 66.852 7.56C66.508 7.56 66.192 7.624 65.904 7.752C65.616 7.88 65.352 8.084 65.112 8.364C65.056 8.428 64.988 8.484 64.908 8.532C64.836 8.572 64.752 8.592 64.656 8.592C64.52 8.592 64.412 8.556 64.332 8.484C64.26 8.404 64.224 8.3 64.224 8.172V3.996C64.224 3.844 64.264 3.732 64.344 3.66C64.424 3.58 64.536 3.54 64.68 3.54H68.76C68.912 3.54 69.024 3.576 69.096 3.648C69.176 3.72 69.216 3.824 69.216 3.96C69.216 4.096 69.176 4.2 69.096 4.272C69.024 4.344 68.912 4.38 68.76 4.38H65.196V7.752H64.932C65.14 7.416 65.428 7.16 65.796 6.984C66.164 6.8 66.576 6.708 67.032 6.708C67.568 6.708 68.028 6.82 68.412 7.044C68.804 7.268 69.104 7.584 69.312 7.992C69.528 8.392 69.636 8.86 69.636 9.396C69.636 9.924 69.52 10.392 69.288 10.8C69.056 11.208 68.728 11.528 68.304 11.76C67.88 11.992 67.372 12.108 66.78 12.108Z" fill="white"/>
<path d="M8.00001 14C7.79929 13.9997 7.60329 13.9391 7.43751 13.8259C4.98157 12.1587 3.91814 11.0156 3.33157 10.3009C2.08157 8.7775 1.48314 7.21344 1.50001 5.51969C1.5197 3.57875 3.07689 2 4.97126 2C6.34876 2 7.30282 2.77594 7.85845 3.42219C7.87605 3.44245 7.8978 3.4587 7.92222 3.46984C7.94664 3.48098 7.97317 3.48674 8.00001 3.48674C8.02685 3.48674 8.05338 3.48098 8.07781 3.46984C8.10223 3.4587 8.12397 3.44245 8.14157 3.42219C8.6972 2.77531 9.65126 2 11.0288 2C12.9231 2 14.4803 3.57875 14.5 5.52C14.5169 7.21406 13.9178 8.77813 12.6685 10.3013C12.0819 11.0159 11.0184 12.1591 8.56251 13.8263C8.39669 13.9393 8.2007 13.9998 8.00001 14Z" fill="#FEFEFE"/>
<path fill-rule="evenodd" clip-rule="evenodd" d="M51 1.33331C54.682 1.33331 57.6667 4.31798 57.6667 7.99998C57.6679 8.9823 57.4514 9.95268 57.0327 10.8413L57.6527 13.866C57.6748 13.974 57.6697 14.0858 57.638 14.1913C57.6063 14.2969 57.5489 14.3929 57.4709 14.4709C57.393 14.5488 57.2969 14.6062 57.1914 14.6379C57.0858 14.6697 56.974 14.6747 56.866 14.6526L53.8413 14.0326C52.9787 14.4393 52.0147 14.666 51 14.666C47.318 14.666 44.3333 11.682 44.3333 7.99931C44.3333 4.31798 47.318 1.33264 51 1.33264V1.33331Z" fill="#FEFEFE"/>
</svg>
