<svg width="16" height="16" viewBox="0 0 16 16" fill="none" xmlns="http://www.w3.org/2000/svg">
<path fill-rule="evenodd" clip-rule="evenodd" d="M8.00001 1.33331C11.682 1.33331 14.6667 4.31798 14.6667 7.99998C14.6679 8.9823 14.4514 9.95268 14.0327 10.8413L14.6527 13.866C14.6748 13.974 14.6697 14.0858 14.638 14.1913C14.6063 14.2969 14.5489 14.3929 14.4709 14.4709C14.393 14.5488 14.2969 14.6062 14.1914 14.6379C14.0858 14.6697 13.974 14.6747 13.866 14.6526L10.8413 14.0326C9.97868 14.4393 9.01468 14.666 8.00001 14.666C4.31801 14.666 1.33335 11.682 1.33335 7.99931C1.33335 4.31798 4.31801 1.33264 8.00001 1.33264V1.33331Z" fill="#FEFEFE"/>
</svg>
