<svg width="16" height="16" viewBox="0 0 16 16" fill="none" xmlns="http://www.w3.org/2000/svg">
<path d="M11.6 9.90002V3.66668C11.6 2.70002 10.8333 1.93335 9.86668 1.93335H3.66668C2.70002 1.93335 1.93335 2.70002 1.93335 3.66668V9.90002C1.93335 10.8667 2.70002 11.6334 3.66668 11.6334H9.90002C10.8334 11.6 11.6 10.8334 11.6 9.90002ZM13.0667 5.00002V10.3667C13.0667 11.8667 11.8334 13.1 10.3334 13.1H4.96668C4.76668 13.1 4.66668 13.3334 4.80002 13.4667C5.13335 13.8334 5.60002 14.0667 6.16668 14.0667H10.6333C12.5333 14.0667 14.0667 12.5333 14.0667 10.6333V6.16668C14.0667 5.63335 13.8334 5.13335 13.4667 4.80002C13.3 4.66668 13.0667 4.80002 13.0667 5.00002Z" fill="white"/>
</svg>
