<svg width="20" height="17" viewBox="0 0 20 17" fill="none" xmlns="http://www.w3.org/2000/svg">
<path d="M17.5 2.625H14.6997L13.3113 0.541875C13.2771 0.490637 13.2308 0.448608 13.1765 0.419504C13.1222 0.390399 13.0616 0.375114 13 0.375H7C6.93841 0.375114 6.87779 0.390399 6.8235 0.419504C6.76922 0.448608 6.72294 0.490637 6.68875 0.541875L5.29844 2.625H2.5C2.00272 2.625 1.52581 2.82254 1.17417 3.17417C0.822544 3.52581 0.625 4.00272 0.625 4.5V15C0.625 15.4973 0.822544 15.9742 1.17417 16.3258C1.52581 16.6775 2.00272 16.875 2.5 16.875H17.5C17.9973 16.875 18.4742 16.6775 18.8258 16.3258C19.1775 15.9742 19.375 15.4973 19.375 15V4.5C19.375 4.00272 19.1775 3.52581 18.8258 3.17417C18.4742 2.82254 17.9973 2.625 17.5 2.625ZM18.625 15C18.625 15.2984 18.5065 15.5845 18.2955 15.7955C18.0845 16.0065 17.7984 16.125 17.5 16.125H2.5C2.20163 16.125 1.91548 16.0065 1.7045 15.7955C1.49353 15.5845 1.375 15.2984 1.375 15V4.5C1.375 4.20163 1.49353 3.91548 1.7045 3.7045C1.91548 3.49353 2.20163 3.375 2.5 3.375H5.5C5.56175 3.37504 5.62256 3.35983 5.67702 3.33072C5.73149 3.30161 5.77791 3.2595 5.81219 3.20813L7.19969 1.125H12.7984L14.1878 3.20813C14.2221 3.2595 14.2685 3.30161 14.323 3.33072C14.3774 3.35983 14.4382 3.37504 14.5 3.375H17.5C17.7984 3.375 18.0845 3.49353 18.2955 3.7045C18.5065 3.91548 18.625 4.20163 18.625 4.5V15ZM10 5.625C9.25832 5.625 8.5333 5.84493 7.91661 6.25699C7.29993 6.66904 6.81928 7.25471 6.53545 7.93994C6.25162 8.62516 6.17736 9.37916 6.32205 10.1066C6.46675 10.834 6.8239 11.5022 7.34835 12.0267C7.8728 12.5511 8.54098 12.9083 9.26841 13.0529C9.99584 13.1976 10.7498 13.1234 11.4351 12.8395C12.1203 12.5557 12.706 12.0751 13.118 11.4584C13.5301 10.8417 13.75 10.1167 13.75 9.375C13.75 8.38044 13.3549 7.42661 12.6517 6.72335C11.9484 6.02009 10.9946 5.625 10 5.625ZM10 12.375C9.40666 12.375 8.82664 12.1991 8.33329 11.8694C7.83994 11.5398 7.45542 11.0712 7.22836 10.5231C7.0013 9.97487 6.94189 9.37167 7.05764 8.78973C7.1734 8.20779 7.45912 7.67324 7.87868 7.25368C8.29824 6.83412 8.83279 6.5484 9.41473 6.43264C9.99667 6.31689 10.5999 6.3763 11.1481 6.60336C11.6962 6.83042 12.1648 7.21494 12.4944 7.70829C12.8241 8.20164 13 8.78166 13 9.375C13 10.1706 12.6839 10.9337 12.1213 11.4963C11.5587 12.0589 10.7956 12.375 10 12.375Z" fill="#FEFEFE"/>
</svg>
