<svg width="24" height="24" viewBox="0 0 24 24" fill="none" xmlns="http://www.w3.org/2000/svg">
<path d="M19.5 5.625H16.6997L15.3113 3.54187C15.2771 3.49064 15.2308 3.44861 15.1765 3.4195C15.1222 3.3904 15.0616 3.37511 15 3.375H9C8.93841 3.37511 8.87779 3.3904 8.8235 3.4195C8.76922 3.44861 8.72294 3.49064 8.68875 3.54187L7.29844 5.625H4.5C4.00272 5.625 3.52581 5.82254 3.17417 6.17417C2.82254 6.52581 2.625 7.00272 2.625 7.5V18C2.625 18.4973 2.82254 18.9742 3.17417 19.3258C3.52581 19.6775 4.00272 19.875 4.5 19.875H19.5C19.9973 19.875 20.4742 19.6775 20.8258 19.3258C21.1775 18.9742 21.375 18.4973 21.375 18V7.5C21.375 7.00272 21.1775 6.52581 20.8258 6.17417C20.4742 5.82254 19.9973 5.625 19.5 5.625ZM20.625 18C20.625 18.2984 20.5065 18.5845 20.2955 18.7955C20.0845 19.0065 19.7984 19.125 19.5 19.125H4.5C4.20163 19.125 3.91548 19.0065 3.7045 18.7955C3.49353 18.5845 3.375 18.2984 3.375 18V7.5C3.375 7.20163 3.49353 6.91548 3.7045 6.7045C3.91548 6.49353 4.20163 6.375 4.5 6.375H7.5C7.56175 6.37504 7.62256 6.35983 7.67702 6.33072C7.73149 6.30161 7.77791 6.2595 7.81219 6.20813L9.19969 4.125H14.7984L16.1878 6.20813C16.2221 6.2595 16.2685 6.30161 16.323 6.33072C16.3774 6.35983 16.4382 6.37504 16.5 6.375H19.5C19.7984 6.375 20.0845 6.49353 20.2955 6.7045C20.5065 6.91548 20.625 7.20163 20.625 7.5V18ZM12 8.625C11.2583 8.625 10.5333 8.84493 9.91661 9.25699C9.29993 9.66904 8.81928 10.2547 8.53545 10.9399C8.25162 11.6252 8.17736 12.3792 8.32205 13.1066C8.46675 13.834 8.8239 14.5022 9.34835 15.0267C9.8728 15.5511 10.541 15.9083 11.2684 16.0529C11.9958 16.1976 12.7498 16.1234 13.4351 15.8395C14.1203 15.5557 14.706 15.0751 15.118 14.4584C15.5301 13.8417 15.75 13.1167 15.75 12.375C15.75 11.3804 15.3549 10.4266 14.6517 9.72335C13.9484 9.02009 12.9946 8.625 12 8.625ZM12 15.375C11.4067 15.375 10.8266 15.1991 10.3333 14.8694C9.83994 14.5398 9.45542 14.0712 9.22836 13.5231C9.0013 12.9749 8.94189 12.3717 9.05764 11.7897C9.1734 11.2078 9.45912 10.6732 9.87868 10.2537C10.2982 9.83412 10.8328 9.5484 11.4147 9.43264C11.9967 9.31689 12.5999 9.3763 13.1481 9.60336C13.6962 9.83042 14.1648 10.2149 14.4944 10.7083C14.8241 11.2016 15 11.7817 15 12.375C15 13.1706 14.6839 13.9337 14.1213 14.4963C13.5587 15.0589 12.7956 15.375 12 15.375Z" fill="#FEFEFE"/>
</svg>
